<?xml version="1.0" encoding="iso-8859-1"?>
<!-- Generator: Adobe Illustrator 16.0.0, SVG Export Plug-In . SVG Version: 6.00 Build 0)  -->
<!DOCTYPE svg PUBLIC "-//W3C//DTD SVG 1.1//EN" "http://www.w3.org/Graphics/SVG/1.1/DTD/svg11.dtd">
<svg version="1.1" id="Capa_1" xmlns="http://www.w3.org/2000/svg" xmlns:xlink="http://www.w3.org/1999/xlink" x="0px" y="0px"
	 width="45.782px" height="45.782px" viewBox="0 0 45.782 45.782" style="enable-background:new 0 0 45.782 45.782;"
	 xml:space="preserve">
<g>
	<g>
		<path d="M44.57,8.413C43.8,7.788,42.777,7.537,41.805,7.74l-13.261,2.792l6.17-5.439c0.668-0.59,0.733-1.609,0.144-2.279
			c-0.59-0.668-1.609-0.731-2.278-0.143l-9.684,8.538l-9.684-8.538c-0.669-0.589-1.689-0.525-2.278,0.143
			c-0.59,0.669-0.525,1.689,0.143,2.279l6.17,5.439L3.982,7.741C3.01,7.537,1.985,7.788,1.215,8.413C0.432,9.049,0,9.992,0,10.999
			v25.067c0,1.566,1.092,2.937,2.624,3.259l19.375,4.084c0.266,0.056,0.615,0.105,0.899,0.105c0.284,0,0.622-0.05,0.889-0.105
			l19.367-4.083c1.533-0.323,2.628-1.692,2.628-3.258V10.999C45.781,9.992,45.354,9.049,44.57,8.413z M21.606,39.381
			c0,0.157-0.08,0.305-0.202,0.403c-0.122,0.099-0.286,0.137-0.438,0.104L3.694,36.251c-0.239-0.05-0.411-0.26-0.413-0.504
			c-0.022-2.953,0.035-20.614,0.047-24.209c0-0.156,0.071-0.305,0.192-0.402c0.122-0.098,0.271-0.137,0.424-0.104l1.69,0.357v7.38
			c0,0.771,0.563,1.434,1.318,1.584l2.167,0.431c0.475,0.095,0.967-0.028,1.341-0.334c0.374-0.308,0.594-0.766,0.594-1.249v-6.669
			l10.124,2.128c0.241,0.051,0.43,0.263,0.43,0.508v24.214H21.606z"/>
	</g>
</g>
<g>
</g>
<g>
</g>
<g>
</g>
<g>
</g>
<g>
</g>
<g>
</g>
<g>
</g>
<g>
</g>
<g>
</g>
<g>
</g>
<g>
</g>
<g>
</g>
<g>
</g>
<g>
</g>
<g>
</g>
</svg>
